<svg xmlns="http://www.w3.org/2000/svg" viewBox="-0.00000948 0 867.59997559 159">
    <path fill="currentColor" d="M307.5 103.43v33.2l-102.8.1-.2-114.2h33.2v81ZM437 103.33v33.2l-114.4.2-.2-114.3 114.3-.2v33.2l-81.1.1v7.4l81.2-.1V96l-81.2.1v7.4ZM599.2 22.18l.1 114.3h-33.2v-48.3l-26 48.7h-29.2l-26.2-48.6v48.4h-33.1V22.38H487L525.5 94l38.3-71.7ZM733.62 79.35a57.1 57.1 0 0 1-57.1 57.2h-10.3a57.15 57.15 0 0 1-.3-114.3h10.4a57.12 57.12 0 0 1 57.3 57.1Zm-33.1 0a24.07 24.07 0 0 0-24-24h-10.3a24 24 0 0 0 0 48h10.2a24.09 24.09 0 0 0 24.1-24ZM867.6 136.61h-37.7l-54-66.9.1 67h-33.2l-.2-114.3h37.7l54 67.1-.2-67.1h33.2ZM79.5 0A79.5 79.5 0 1 0 159 79.5 79.57 79.57 0 0 0 79.5 0Zm41.7 83.2a5.85 5.85 0 0 1-1.7 1 9 9 0 0 1-2.2.6 15.14 15.14 0 0 1-5.2-.1 33.85 33.85 0 0 1-11-4.4 66.05 66.05 0 0 1-9.9-7.5q-2.2-2.1-4.5-4.5c-1.4-1.5-2.9-3.2-4.2-4.9a1.7 1.7 0 0 0-2.3-.4 1.78 1.78 0 0 0-.6 2.4c1.2 1.9 2.5 3.7 3.8 5.5s2.8 3.5 4.3 5.2a67 67 0 0 0 10 9.2 40.55 40.55 0 0 0 12.6 6.4 35.5 35.5 0 0 0 4.7.9 1.16 1.16 0 0 1 1.1 1.3.76.76 0 0 1-.2.5 61.35 61.35 0 0 1-9.4 12.1c-11.1 11.1-25.3 17.2-38.2 17.2a34.83 34.83 0 0 1-15.6-3.4l-1.1-.5a1.27 1.27 0 0 0-1.2 0l-1 .7a10.16 10.16 0 0 1-5.5 1.7 5.72 5.72 0 0 1-4.4-1.7c-2.1-2.1-2.2-6.1-.1-9.6l.6-1.1a1.27 1.27 0 0 0 0-1.2l-.6-1.1c-5.5-10.4-5.1-24.1.5-36.8a1.2 1.2 0 0 1 1.6-.6.9.9 0 0 1 .6.6 45.93 45.93 0 0 0 4.2 7.9A62.24 62.24 0 0 0 55 89.1a53.45 53.45 0 0 0 5 4.5c1.7 1.4 3.5 2.8 5.3 4.1a1.71 1.71 0 0 0 2.1-2.7c-1.6-1.4-3.2-2.9-4.7-4.4s-2.9-3.1-4.3-4.7a64.47 64.47 0 0 1-7-10.3 32.15 32.15 0 0 1-3.7-11.2 15.13 15.13 0 0 1 0-5.2 15.87 15.87 0 0 1 .7-2l.4-.6a47.34 47.34 0 0 1 3.7-4c16.3-16.4 39-21.8 55-13.2l1.2.6a1.27 1.27 0 0 0 1.2 0l1.1-.7c3.7-2.4 7.9-2.5 10.2-.2s2.2 6.7-.4 10.5l-.8 1a1.29 1.29 0 0 0-.1 1.2l.6 1.2c4.1 8.7 4.3 19.5.7 30.2Z" />
</svg>